<svg width="225.00000000000003" height="225.00000000000003" xmlns="http://www.w3.org/2000/svg">
 <!-- Created with Method Draw - http://github.com/duopixel/Method-Draw/ -->

 <g>
  <title>background</title>
  <rect fill="none" id="canvas_background" height="227" width="227" y="-1" x="-1"/>
  <g display="none" id="canvasGrid">
   <rect fill="url(#gridpattern)" stroke-width="0" height="480" width="640" id="svg_1"/>
  </g>
 </g>
 <g>
  <title>Layer 1</title>
  <ellipse ry="107.5" rx="107.5" id="svg_25" cy="112.5" cx="112.500001" stroke-width="5" stroke="#ffffff" fill="none"/>
  <ellipse stroke="null" ry="2.26722" rx="2.421053" id="svg_18" cy="112.500002" cx="112.499999" stroke-width="5" fill="#000000"/>
  <ellipse ry="107.5" rx="107.5" id="svg_2" cy="112.5" cx="112.500001" stroke-width="5" fill="#ffffff"/>
  <path id="svg_23" d="m112.499999,112.500001" opacity="0.5" fill-opacity="null" stroke-opacity="null" stroke-width="5" stroke="null" fill="#000000"/>
  <path id="svg_28" d="m112.499997,112.499997" opacity="0.5" fill-opacity="null" stroke-opacity="0" stroke-width="5" stroke="#000000" fill="#000000"/>
  <path id="svg_30" d="m112.5,112.499997" opacity="0.5" fill-opacity="null" stroke-opacity="0" stroke-width="5" stroke="#000000" fill="#000000"/>
  <path id="svg_20" d="m79.221832,140.259476l66.556339,-55.51895l-66.556339,55.51895z" stroke-width="8" fill="#000000"/>
  <ellipse stroke="#000000" ry="107.5" rx="107.5" id="svg_33" cy="112.499999" cx="112.499997" stroke-width="6" fill="none"/>
  <rect rx="1" stroke="null" id="svg_39" height="111.428574" width="111.428574" y="56.785713" x="56.785712" stroke-width="3" fill="#000000"/>
  <path opacity="0.2" id="svg_45" d="m56.75927,167.826849l113.166009,38.839801l24.834438,-19.969053l22.576762,-45.928821c1.381661,-15.975242 -0.199641,-31.950485 1.18202,-47.925727c0.235096,-4.916029 -3.696473,-11.915391 -3.461377,-16.83142c-32.415882,-12.327949 -26.961398,-9.979975 -47.155057,-18.23385c-24.4985,53.938034 -74.095197,73.366047 -111.142795,110.04907z" stroke-width="6" fill="#000000"/>
  <g stroke="null" id="svg_44">
   <path stroke="null" id="svg_40" d="m69.336514,153.509474c23.928611,-11.323496 47.207996,-30.85103 57.864763,-58.193519l10.606055,14.433288c-17.176933,23.208582 -42.913148,35.398542 -68.470818,43.760231z" stroke-opacity="null" stroke-width="3" fill="#ffffff"/>
   <path stroke="null" id="svg_43" d="m122.255031,106.24699c2.028548,-3.363967 7.053301,-15.996275 7.994617,-19.174604l-8.568268,-3.04782l26.071428,-8.772186l9.285714,24.028162c-2.738095,-1.271331 -5.47619,-2.542663 -8.214285,-3.813994c-3.934893,6.542293 -14.241465,18.376923 -19.238304,23.974156c-2.797616,-5.720989 -4.533286,-7.472724 -7.330902,-13.193713z" fill-opacity="null" stroke-width="6" fill="#ffffff"/>
  </g>
 </g>
</svg>