<?xml version="1.0" encoding="utf-8"?>
<!-- Generator: Adobe Illustrator 21.1.0, SVG Export Plug-In . SVG Version: 6.00 Build 0)  -->
<svg version="1.1" id="Layer_1" xmlns="http://www.w3.org/2000/svg" xmlns:xlink="http://www.w3.org/1999/xlink" x="0px" y="0px"
	 viewBox="0 0 300 300" width="600" height="600" style="enable-background:new 0 0 300 300;" xml:space="preserve">
<style type="text/css">
	.st0{fill:#000000;}
	.st1{fill:#FFFFFF;}
	.st2{fill:#FFFFFF;stroke:#FFFFFF;stroke-miterlimit:10;}
</style>
<g>
	<circle class="st0" cx="150.4" cy="153.1" r="141"/>
</g>
<g>
	<path class="st1" d="M150.4,19.6c35.7,0,69.2,13.9,94.4,39.1s39.1,58.7,39.1,94.4s-13.9,69.2-39.1,94.4s-58.7,39.1-94.4,39.1
		S81.2,272.7,56,247.5s-39.1-58.7-39.1-94.4S30.7,83.9,56,58.7C81.2,33.5,114.7,19.6,150.4,19.6 M150.4,17.6
		c-74.8,0-135.5,60.7-135.5,135.5s60.7,135.5,135.5,135.5S285.9,228,285.9,153.1S225.2,17.6,150.4,17.6L150.4,17.6z"/>
</g>
<g>
	<path class="st2" d="M149.5,191.8c-5.6,0-10.8-1-15.4-2.9c-4.7-1.9-8.7-4.6-12.2-8.1c-3.4-3.4-6.1-7.5-8-12.3
		c-1.9-4.7-2.9-9.9-2.9-15.4s1-10.7,2.9-15.4s4.6-8.8,8-12.3c3.4-3.4,7.5-6.1,12.2-8.1c4.7-1.9,9.8-2.9,15.4-2.9s10.8,1,15.4,2.9
		c4.7,1.9,8.7,4.6,12.2,8.1c3.4,3.4,6.1,7.5,8,12.3c1.9,4.7,2.9,9.9,2.9,15.4s-1,10.7-2.9,15.4c-1.9,4.8-4.6,8.8-8,12.3
		c-3.4,3.4-7.5,6.1-12.2,8.1C160.2,190.8,155.1,191.8,149.5,191.8z M149.5,183.6c4.3,0,8.2-0.8,11.8-2.4c3.6-1.6,6.6-3.8,9.2-6.6
		c2.6-2.8,4.6-6,6-9.7s2.1-7.7,2.1-11.9s-0.7-8.2-2.1-11.9c-1.4-3.7-3.4-7-6-9.7c-2.6-2.8-5.6-5-9.2-6.6c-3.6-1.6-7.5-2.4-11.8-2.4
		s-8.2,0.8-11.8,2.4s-6.6,3.8-9.2,6.6c-2.6,2.8-4.6,6-6,9.7s-2.1,7.7-2.1,11.9s0.7,8.2,2.1,11.9s3.4,7,6,9.7c2.6,2.8,5.6,5,9.2,6.6
		C141.2,182.8,145.2,183.6,149.5,183.6z"/>
</g>
</svg>
