<svg width="225" height="225" xmlns="http://www.w3.org/2000/svg">
 <!-- Created with Method Draw - http://github.com/duopixel/Method-Draw/ -->

 <g>
  <title>background</title>
  <rect fill="none" id="canvas_background" height="227" width="227" y="-1" x="-1"/>
  <g display="none" id="canvasGrid">
   <rect fill="url(#gridpattern)" stroke-width="0" height="480" width="640" id="svg_1"/>
  </g>
 </g>
 <g>
  <title>Layer 1</title>
  <ellipse ry="107.5" rx="107.5" id="svg_25" cy="112.293084" cx="113.330902" stroke-width="5" stroke="#ffffff" fill="none"/>
  <ellipse stroke="null" ry="2.26722" rx="2.421053" id="svg_18" cy="89.689961" cx="113.330892" stroke-width="5" fill="#000000"/>
  <ellipse ry="107.5" rx="107.5" id="svg_2" cy="112.293084" cx="113.330902" stroke-width="5" fill="#ffffff"/>
  <ellipse stroke="#000000" ry="107.5" rx="107.5" id="svg_33" cy="112.293084" cx="113.330902" stroke-width="6" fill="none"/>
  <path id="svg_23" d="m176.6145,178.17943" opacity="0.5" fill-opacity="null" stroke-opacity="null" stroke-width="5" stroke="null" fill="#000000"/>
  <path opacity="0.2" stroke="#000000" id="svg_32" d="m65.39752,182.89458c34.1925,11.76399 53.85979,18.50001 88.05229,30.264c12.74553,-5.99722 22.03086,-15.45465 34.77638,-21.45187l25.10973,-33.53941c3.26461,-12.62915 5.14514,-25.95034 8.40975,-38.57948c0.68492,-8.87692 -1.97311,-17.52343 -1.28819,-26.40035c-7.09039,-10.98084 -7.83199,-17.15701 -9.20657,-24.36719c-35.64855,-12.90243 -61.94252,-21.94361 -97.59108,-34.84604l-48.26231,148.92034z" fill-opacity="null" stroke-opacity="0" stroke-width="5" fill="#000000"/>
  <path stroke="#000000" id="svg_26" d="m34.60045,90.51307l60.14515,0l18.58531,-57.13764l18.58532,57.13764c20.04838,0 40.09676,0 60.14513,0l-48.65835,35.3126l18.58627,57.13764l-48.65837,-35.31356l-48.65837,35.31356l18.58628,-57.13764l-48.65837,-35.3126z" fill-opacity="null" stroke-opacity="0" stroke-width="5" fill="#000000"/>
  <path id="svg_28" d="m65.91299,181.58853" opacity="0.5" fill-opacity="null" stroke-opacity="0" stroke-width="5" stroke="#000000" fill="#000000"/>
  <path id="svg_30" d="m66.42845,181.58853" opacity="0.5" fill-opacity="null" stroke-opacity="0" stroke-width="5" stroke="#000000" fill="#000000"/>
 </g>
</svg>